<svg width="23" height="24" viewBox="0 0 23 24" fill="none" xmlns="http://www.w3.org/2000/svg">
<path d="M19.9592 8H2.85132C2.59924 8 2.3575 7.89464 2.17926 7.70711C2.00101 7.51957 1.90088 7.26522 1.90088 7C1.90088 6.73478 2.00101 6.48043 2.17926 6.29289C2.3575 6.10536 2.59924 6 2.85132 6H19.9592C20.2113 6 20.453 6.10536 20.6313 6.29289C20.8095 6.48043 20.9096 6.73478 20.9096 7C20.9096 7.26522 20.8095 7.51957 20.6313 7.70711C20.453 7.89464 20.2113 8 19.9592 8ZM16.1574 13H2.85132C2.59924 13 2.3575 12.8946 2.17926 12.7071C2.00101 12.5196 1.90088 12.2652 1.90088 12C1.90088 11.7348 2.00101 11.4804 2.17926 11.2929C2.3575 11.1054 2.59924 11 2.85132 11H16.1574C16.4095 11 16.6513 11.1054 16.8295 11.2929C17.0077 11.4804 17.1079 11.7348 17.1079 12C17.1079 12.2652 17.0077 12.5196 16.8295 12.7071C16.6513 12.8946 16.4095 13 16.1574 13ZM12.3557 18H2.85132C2.59924 18 2.3575 17.8946 2.17926 17.7071C2.00101 17.5196 1.90088 17.2652 1.90088 17C1.90088 16.7348 2.00101 16.4804 2.17926 16.2929C2.3575 16.1054 2.59924 16 2.85132 16H12.3557C12.6078 16 12.8495 16.1054 13.0278 16.2929C13.206 16.4804 13.3061 16.7348 13.3061 17C13.3061 17.2652 13.206 17.5196 13.0278 17.7071C12.8495 17.8946 12.6078 18 12.3557 18Z" fill="#240F4F"/>
</svg>
